<mxfile host="app.diagrams.net" agent="Mozilla/5.0 (Windows NT 10.0; Win64; x64) AppleWebKit/537.36 (KHTML, like Gecko) Chrome/136.0.0.0 Safari/537.36 Edg/136.0.0.0" version="26.3.0">
  <diagram name="Страница — 1" id="uZEuh6ZAjfSUJEJG3X5m">
    <mxGraphModel dx="1637" dy="349" grid="1" gridSize="10" guides="1" tooltips="1" connect="1" arrows="1" fold="1" page="1" pageScale="1" pageWidth="827" pageHeight="1169" math="0" shadow="0">
      <root>
        <mxCell id="0" />
        <mxCell id="1" parent="0" />
        <mxCell id="ysDDO8IDNmc0_oCZxNwf-1" value="Program" style="swimlane;fontStyle=1;align=center;verticalAlign=top;childLayout=stackLayout;horizontal=1;startSize=26;horizontalStack=0;resizeParent=1;resizeParentMax=0;resizeLast=0;collapsible=1;marginBottom=0;whiteSpace=wrap;html=1;" parent="1" vertex="1">
          <mxGeometry x="-260" y="150" width="160" height="60" as="geometry" />
        </mxCell>
        <mxCell id="ysDDO8IDNmc0_oCZxNwf-3" value="" style="line;strokeWidth=1;fillColor=none;align=left;verticalAlign=middle;spacingTop=-1;spacingLeft=3;spacingRight=3;rotatable=0;labelPosition=right;points=[];portConstraint=eastwest;strokeColor=inherit;" parent="ysDDO8IDNmc0_oCZxNwf-1" vertex="1">
          <mxGeometry y="26" width="160" height="8" as="geometry" />
        </mxCell>
        <mxCell id="ysDDO8IDNmc0_oCZxNwf-4" value="Main(args: String[])" style="text;strokeColor=none;fillColor=none;align=left;verticalAlign=top;spacingLeft=4;spacingRight=4;overflow=hidden;rotatable=0;points=[[0,0.5],[1,0.5]];portConstraint=eastwest;whiteSpace=wrap;html=1;" parent="ysDDO8IDNmc0_oCZxNwf-1" vertex="1">
          <mxGeometry y="34" width="160" height="26" as="geometry" />
        </mxCell>
        <mxCell id="ysDDO8IDNmc0_oCZxNwf-6" value="RealDeliveryService" style="swimlane;fontStyle=1;align=center;verticalAlign=top;childLayout=stackLayout;horizontal=1;startSize=26;horizontalStack=0;resizeParent=1;resizeParentMax=0;resizeLast=0;collapsible=1;marginBottom=0;whiteSpace=wrap;html=1;" parent="1" vertex="1">
          <mxGeometry x="-10" y="210" width="200" height="80" as="geometry" />
        </mxCell>
        <mxCell id="ysDDO8IDNmc0_oCZxNwf-8" value="" style="line;strokeWidth=1;fillColor=none;align=left;verticalAlign=middle;spacingTop=-1;spacingLeft=3;spacingRight=3;rotatable=0;labelPosition=right;points=[];portConstraint=eastwest;strokeColor=inherit;" parent="ysDDO8IDNmc0_oCZxNwf-6" vertex="1">
          <mxGeometry y="26" width="200" height="8" as="geometry" />
        </mxCell>
        <mxCell id="ysDDO8IDNmc0_oCZxNwf-9" value="+ Calculate(DeliveryParams): DeliveryResult" style="text;strokeColor=none;fillColor=none;align=left;verticalAlign=top;spacingLeft=4;spacingRight=4;overflow=hidden;rotatable=0;points=[[0,0.5],[1,0.5]];portConstraint=eastwest;whiteSpace=wrap;html=1;" parent="ysDDO8IDNmc0_oCZxNwf-6" vertex="1">
          <mxGeometry y="34" width="200" height="46" as="geometry" />
        </mxCell>
        <mxCell id="ysDDO8IDNmc0_oCZxNwf-10" value="MockDeliveryService" style="swimlane;fontStyle=1;align=center;verticalAlign=top;childLayout=stackLayout;horizontal=1;startSize=26;horizontalStack=0;resizeParent=1;resizeParentMax=0;resizeLast=0;collapsible=1;marginBottom=0;whiteSpace=wrap;html=1;" parent="1" vertex="1">
          <mxGeometry x="-20" y="370" width="200" height="80" as="geometry" />
        </mxCell>
        <mxCell id="ysDDO8IDNmc0_oCZxNwf-11" value="" style="line;strokeWidth=1;fillColor=none;align=left;verticalAlign=middle;spacingTop=-1;spacingLeft=3;spacingRight=3;rotatable=0;labelPosition=right;points=[];portConstraint=eastwest;strokeColor=inherit;" parent="ysDDO8IDNmc0_oCZxNwf-10" vertex="1">
          <mxGeometry y="26" width="200" height="8" as="geometry" />
        </mxCell>
        <mxCell id="ysDDO8IDNmc0_oCZxNwf-12" value="+ Calculate(DeliveryParams): DeliveryResult" style="text;strokeColor=none;fillColor=none;align=left;verticalAlign=top;spacingLeft=4;spacingRight=4;overflow=hidden;rotatable=0;points=[[0,0.5],[1,0.5]];portConstraint=eastwest;whiteSpace=wrap;html=1;" parent="ysDDO8IDNmc0_oCZxNwf-10" vertex="1">
          <mxGeometry y="34" width="200" height="46" as="geometry" />
        </mxCell>
        <mxCell id="ysDDO8IDNmc0_oCZxNwf-13" value="DeliveryResult" style="swimlane;fontStyle=1;align=center;verticalAlign=top;childLayout=stackLayout;horizontal=1;startSize=26;horizontalStack=0;resizeParent=1;resizeParentMax=0;resizeLast=0;collapsible=1;marginBottom=0;whiteSpace=wrap;html=1;" parent="1" vertex="1">
          <mxGeometry x="260" y="360" width="200" height="80" as="geometry" />
        </mxCell>
        <mxCell id="ysDDO8IDNmc0_oCZxNwf-14" value="" style="line;strokeWidth=1;fillColor=none;align=left;verticalAlign=middle;spacingTop=-1;spacingLeft=3;spacingRight=3;rotatable=0;labelPosition=right;points=[];portConstraint=eastwest;strokeColor=inherit;" parent="ysDDO8IDNmc0_oCZxNwf-13" vertex="1">
          <mxGeometry y="26" width="200" height="8" as="geometry" />
        </mxCell>
        <mxCell id="ysDDO8IDNmc0_oCZxNwf-15" value="- Price: Real&lt;div&gt;- EstimatedDays: Integer&lt;/div&gt;" style="text;strokeColor=none;fillColor=none;align=left;verticalAlign=top;spacingLeft=4;spacingRight=4;overflow=hidden;rotatable=0;points=[[0,0.5],[1,0.5]];portConstraint=eastwest;whiteSpace=wrap;html=1;" parent="ysDDO8IDNmc0_oCZxNwf-13" vertex="1">
          <mxGeometry y="34" width="200" height="46" as="geometry" />
        </mxCell>
        <mxCell id="ysDDO8IDNmc0_oCZxNwf-16" value="DeliveryParams" style="swimlane;fontStyle=1;align=center;verticalAlign=top;childLayout=stackLayout;horizontal=1;startSize=26;horizontalStack=0;resizeParent=1;resizeParentMax=0;resizeLast=0;collapsible=1;marginBottom=0;whiteSpace=wrap;html=1;" parent="1" vertex="1">
          <mxGeometry x="270" y="180" width="200" height="120" as="geometry" />
        </mxCell>
        <mxCell id="ysDDO8IDNmc0_oCZxNwf-17" value="" style="line;strokeWidth=1;fillColor=none;align=left;verticalAlign=middle;spacingTop=-1;spacingLeft=3;spacingRight=3;rotatable=0;labelPosition=right;points=[];portConstraint=eastwest;strokeColor=inherit;" parent="ysDDO8IDNmc0_oCZxNwf-16" vertex="1">
          <mxGeometry y="26" width="200" height="8" as="geometry" />
        </mxCell>
        <mxCell id="ysDDO8IDNmc0_oCZxNwf-18" value="- Weight: Real&lt;div&gt;- Length: Real&lt;/div&gt;&lt;div&gt;- Width: Real&lt;/div&gt;&lt;div&gt;- Height: Real&lt;/div&gt;&lt;div&gt;- Distance: Real&lt;/div&gt;" style="text;strokeColor=none;fillColor=none;align=left;verticalAlign=top;spacingLeft=4;spacingRight=4;overflow=hidden;rotatable=0;points=[[0,0.5],[1,0.5]];portConstraint=eastwest;whiteSpace=wrap;html=1;" parent="ysDDO8IDNmc0_oCZxNwf-16" vertex="1">
          <mxGeometry y="34" width="200" height="86" as="geometry" />
        </mxCell>
        <mxCell id="ysDDO8IDNmc0_oCZxNwf-19" value="" style="endArrow=block;endFill=1;html=1;edgeStyle=orthogonalEdgeStyle;align=left;verticalAlign=top;rounded=0;" parent="1" source="ysDDO8IDNmc0_oCZxNwf-9" target="ysDDO8IDNmc0_oCZxNwf-18" edge="1">
          <mxGeometry x="-1" relative="1" as="geometry">
            <mxPoint x="414" y="140" as="sourcePoint" />
            <mxPoint x="574" y="140" as="targetPoint" />
            <Array as="points">
              <mxPoint x="230" y="257" />
              <mxPoint x="230" y="257" />
            </Array>
          </mxGeometry>
        </mxCell>
        <mxCell id="ysDDO8IDNmc0_oCZxNwf-23" value="" style="endArrow=block;endFill=1;html=1;edgeStyle=orthogonalEdgeStyle;align=left;verticalAlign=top;rounded=0;" parent="1" source="ysDDO8IDNmc0_oCZxNwf-1" target="ysDDO8IDNmc0_oCZxNwf-16" edge="1">
          <mxGeometry x="-1" relative="1" as="geometry">
            <mxPoint x="-50.00000000000023" y="150" as="sourcePoint" />
            <mxPoint x="280.0000000000002" y="193" as="targetPoint" />
            <Array as="points">
              <mxPoint x="-140" y="120" />
              <mxPoint x="370" y="120" />
            </Array>
          </mxGeometry>
        </mxCell>
        <mxCell id="ysDDO8IDNmc0_oCZxNwf-24" value="" style="endArrow=block;endFill=1;html=1;edgeStyle=orthogonalEdgeStyle;align=left;verticalAlign=top;rounded=0;" parent="1" source="ysDDO8IDNmc0_oCZxNwf-1" target="G271oW7RxHgTf4Z2-x3A-5" edge="1">
          <mxGeometry x="-1" relative="1" as="geometry">
            <mxPoint x="-147.5" y="184" as="sourcePoint" />
            <mxPoint x="-147" y="320" as="targetPoint" />
            <Array as="points">
              <mxPoint x="-190" y="270" />
              <mxPoint x="-190" y="270" />
            </Array>
          </mxGeometry>
        </mxCell>
        <mxCell id="ysDDO8IDNmc0_oCZxNwf-25" value="" style="endArrow=block;endFill=1;html=1;edgeStyle=orthogonalEdgeStyle;align=left;verticalAlign=top;rounded=0;" parent="1" source="ysDDO8IDNmc0_oCZxNwf-9" target="ysDDO8IDNmc0_oCZxNwf-13" edge="1">
          <mxGeometry x="-1" relative="1" as="geometry">
            <mxPoint x="444" y="170" as="sourcePoint" />
            <mxPoint x="604" y="170" as="targetPoint" />
            <Array as="points">
              <mxPoint x="330" y="317" />
            </Array>
          </mxGeometry>
        </mxCell>
        <mxCell id="ysDDO8IDNmc0_oCZxNwf-27" value="" style="endArrow=block;endFill=1;html=1;edgeStyle=orthogonalEdgeStyle;align=left;verticalAlign=top;rounded=0;" parent="1" source="ysDDO8IDNmc0_oCZxNwf-12" target="ysDDO8IDNmc0_oCZxNwf-15" edge="1">
          <mxGeometry x="-1" relative="1" as="geometry">
            <mxPoint x="454" y="180" as="sourcePoint" />
            <mxPoint x="614" y="180" as="targetPoint" />
            <Array as="points">
              <mxPoint x="220" y="420" />
              <mxPoint x="220" y="420" />
            </Array>
          </mxGeometry>
        </mxCell>
        <mxCell id="ysDDO8IDNmc0_oCZxNwf-28" value="" style="endArrow=block;dashed=1;endFill=0;endSize=12;html=1;rounded=0;" parent="1" source="ysDDO8IDNmc0_oCZxNwf-9" target="G271oW7RxHgTf4Z2-x3A-5" edge="1">
          <mxGeometry width="160" relative="1" as="geometry">
            <mxPoint x="220" y="290" as="sourcePoint" />
            <mxPoint x="-110" y="328" as="targetPoint" />
          </mxGeometry>
        </mxCell>
        <mxCell id="ysDDO8IDNmc0_oCZxNwf-30" value="" style="endArrow=block;dashed=1;endFill=0;endSize=12;html=1;rounded=0;" parent="1" source="ysDDO8IDNmc0_oCZxNwf-10" target="G271oW7RxHgTf4Z2-x3A-5" edge="1">
          <mxGeometry width="160" relative="1" as="geometry">
            <mxPoint x="412" y="270" as="sourcePoint" />
            <mxPoint x="-110" y="359.59183673469386" as="targetPoint" />
          </mxGeometry>
        </mxCell>
        <mxCell id="ysDDO8IDNmc0_oCZxNwf-31" value="creates" style="text;html=1;align=center;verticalAlign=middle;resizable=0;points=[];autosize=1;strokeColor=none;fillColor=none;" parent="1" vertex="1">
          <mxGeometry x="90" y="100" width="60" height="30" as="geometry" />
        </mxCell>
        <mxCell id="ysDDO8IDNmc0_oCZxNwf-32" value="uses" style="text;html=1;align=center;verticalAlign=middle;resizable=0;points=[];autosize=1;strokeColor=none;fillColor=none;" parent="1" vertex="1">
          <mxGeometry x="200" y="235" width="50" height="30" as="geometry" />
        </mxCell>
        <mxCell id="ysDDO8IDNmc0_oCZxNwf-37" value="Stub Service Diagram" style="shape=umlFrame;whiteSpace=wrap;html=1;pointerEvents=0;width=136;height=30;" parent="1" vertex="1">
          <mxGeometry x="-320" width="830" height="490" as="geometry" />
        </mxCell>
        <mxCell id="G271oW7RxHgTf4Z2-x3A-2" value="" style="ellipse;shape=cloud;whiteSpace=wrap;html=1;" parent="1" vertex="1">
          <mxGeometry x="-70" y="300" width="60" height="30" as="geometry" />
        </mxCell>
        <mxCell id="G271oW7RxHgTf4Z2-x3A-5" value="&lt;span style=&quot;font-weight: 400;&quot;&gt;«interface»&lt;/span&gt;&lt;br style=&quot;font-weight: 400;&quot;&gt;&lt;font style=&quot;font-size: 11px;&quot;&gt;IDeliveryService&lt;/font&gt;" style="swimlane;fontStyle=1;align=center;verticalAlign=top;childLayout=stackLayout;horizontal=1;startSize=40;horizontalStack=0;resizeParent=1;resizeParentMax=0;resizeLast=0;collapsible=1;marginBottom=0;whiteSpace=wrap;html=1;" parent="1" vertex="1">
          <mxGeometry x="-310" y="330" width="210" height="90" as="geometry" />
        </mxCell>
        <mxCell id="G271oW7RxHgTf4Z2-x3A-7" value="" style="line;strokeWidth=1;fillColor=none;align=left;verticalAlign=middle;spacingTop=-1;spacingLeft=3;spacingRight=3;rotatable=0;labelPosition=right;points=[];portConstraint=eastwest;strokeColor=inherit;" parent="G271oW7RxHgTf4Z2-x3A-5" vertex="1">
          <mxGeometry y="40" width="210" height="8" as="geometry" />
        </mxCell>
        <mxCell id="G271oW7RxHgTf4Z2-x3A-8" value="+ Calculate(DeliveryParams): DeliveryResult" style="text;strokeColor=none;fillColor=none;align=left;verticalAlign=top;spacingLeft=4;spacingRight=4;overflow=hidden;rotatable=0;points=[[0,0.5],[1,0.5]];portConstraint=eastwest;whiteSpace=wrap;html=1;" parent="G271oW7RxHgTf4Z2-x3A-5" vertex="1">
          <mxGeometry y="48" width="210" height="42" as="geometry" />
        </mxCell>
      </root>
    </mxGraphModel>
  </diagram>
</mxfile>
